<svg width="85" height="23" viewBox="0 0 85 23" fill="none" xmlns="http://www.w3.org/2000/svg">
<rect width="85" height="23" rx="11.5" fill="#E9FFEF"/>
<circle cx="11.5" cy="11.5" r="3.5" fill="#409261"/>
<path d="M23.4148 16H22.3068L25.5114 7.27273H26.6023L29.8068 16H28.6989L26.0909 8.65341H26.0227L23.4148 16ZM23.8239 12.5909H28.2898V13.5284H23.8239V12.5909ZM33.6889 16.1364C33.0753 16.1364 32.5469 15.9915 32.1037 15.7017C31.6605 15.4119 31.3196 15.0128 31.081 14.5043C30.8423 13.9957 30.723 13.4148 30.723 12.7614C30.723 12.0966 30.8452 11.5099 31.0895 11.0014C31.3366 10.4901 31.6804 10.0909 32.1207 9.80398C32.5639 9.5142 33.081 9.36932 33.6719 9.36932C34.1321 9.36932 34.5469 9.45455 34.9162 9.625C35.2855 9.79545 35.5881 10.0341 35.8239 10.3409C36.0597 10.6477 36.206 11.0057 36.2628 11.4148H35.2571C35.1804 11.1165 35.0099 10.8523 34.7457 10.6222C34.4844 10.3892 34.1321 10.2727 33.6889 10.2727C33.2969 10.2727 32.9531 10.375 32.6577 10.5795C32.3651 10.7812 32.1364 11.0668 31.9716 11.4361C31.8097 11.8026 31.7287 12.233 31.7287 12.7273C31.7287 13.233 31.8082 13.6733 31.9673 14.0483C32.1293 14.4233 32.3565 14.7145 32.6491 14.9219C32.9446 15.1293 33.2912 15.233 33.6889 15.233C33.9503 15.233 34.1875 15.1875 34.4006 15.0966C34.6136 15.0057 34.794 14.875 34.9418 14.7045C35.0895 14.5341 35.1946 14.3295 35.2571 14.0909H36.2628C36.206 14.4773 36.0653 14.8253 35.8409 15.1349C35.6193 15.4418 35.3253 15.6861 34.9588 15.8679C34.5952 16.0469 34.1719 16.1364 33.6889 16.1364ZM40.392 16.1364C39.7784 16.1364 39.25 15.9915 38.8068 15.7017C38.3636 15.4119 38.0227 15.0128 37.7841 14.5043C37.5455 13.9957 37.4261 13.4148 37.4261 12.7614C37.4261 12.0966 37.5483 11.5099 37.7926 11.0014C38.0398 10.4901 38.3835 10.0909 38.8239 9.80398C39.267 9.5142 39.7841 9.36932 40.375 9.36932C40.8352 9.36932 41.25 9.45455 41.6193 9.625C41.9886 9.79545 42.2912 10.0341 42.527 10.3409C42.7628 10.6477 42.9091 11.0057 42.9659 11.4148H41.9602C41.8835 11.1165 41.7131 10.8523 41.4489 10.6222C41.1875 10.3892 40.8352 10.2727 40.392 10.2727C40 10.2727 39.6563 10.375 39.3608 10.5795C39.0682 10.7812 38.8395 11.0668 38.6747 11.4361C38.5128 11.8026 38.4318 12.233 38.4318 12.7273C38.4318 13.233 38.5114 13.6733 38.6705 14.0483C38.8324 14.4233 39.0597 14.7145 39.3523 14.9219C39.6477 15.1293 39.9943 15.233 40.392 15.233C40.6534 15.233 40.8906 15.1875 41.1037 15.0966C41.3168 15.0057 41.4972 14.875 41.6449 14.7045C41.7926 14.5341 41.8977 14.3295 41.9602 14.0909H42.9659C42.9091 14.4773 42.7685 14.8253 42.544 15.1349C42.3224 15.4418 42.0284 15.6861 41.6619 15.8679C41.2983 16.0469 40.875 16.1364 40.392 16.1364ZM47.1804 16.1364C46.5497 16.1364 46.0057 15.9972 45.5483 15.7188C45.0938 15.4375 44.7429 15.0455 44.4957 14.5426C44.2514 14.0369 44.1293 13.4489 44.1293 12.7784C44.1293 12.108 44.2514 11.517 44.4957 11.0057C44.7429 10.4915 45.0866 10.0909 45.527 9.80398C45.9702 9.5142 46.4872 9.36932 47.0781 9.36932C47.419 9.36932 47.7557 9.42614 48.0881 9.53977C48.4205 9.65341 48.723 9.83807 48.9957 10.0938C49.2685 10.3466 49.4858 10.6818 49.6477 11.0994C49.8097 11.517 49.8906 12.0312 49.8906 12.642V13.0682H44.8452V12.1989H48.8679C48.8679 11.8295 48.794 11.5 48.6463 11.2102C48.5014 10.9205 48.294 10.6918 48.0241 10.5241C47.7571 10.3565 47.4418 10.2727 47.0781 10.2727C46.6776 10.2727 46.331 10.3722 46.0384 10.571C45.7486 10.767 45.5256 11.0227 45.3693 11.3381C45.2131 11.6534 45.1349 11.9915 45.1349 12.3523V12.9318C45.1349 13.4261 45.2202 13.8452 45.3906 14.1889C45.5639 14.5298 45.804 14.7898 46.1108 14.9688C46.4176 15.1449 46.7741 15.233 47.1804 15.233C47.4446 15.233 47.6832 15.196 47.8963 15.1222C48.1122 15.0455 48.2983 14.9318 48.4545 14.7812C48.6108 14.6278 48.7315 14.4375 48.8168 14.2102L49.7884 14.483C49.6861 14.8125 49.5142 15.1023 49.2727 15.3523C49.0313 15.5994 48.733 15.7926 48.3778 15.9318C48.0227 16.0682 47.6236 16.1364 47.1804 16.1364ZM51.4205 18.4545V9.45455H52.392V10.4943H52.5114C52.5852 10.3807 52.6875 10.2358 52.8182 10.0597C52.9517 9.88068 53.142 9.72159 53.3892 9.58239C53.6392 9.44034 53.9773 9.36932 54.4034 9.36932C54.9545 9.36932 55.4403 9.5071 55.8608 9.78267C56.2813 10.0582 56.6094 10.4489 56.8452 10.9545C57.081 11.4602 57.1989 12.0568 57.1989 12.7443C57.1989 13.4375 57.081 14.0384 56.8452 14.5469C56.6094 15.0526 56.2827 15.4446 55.8651 15.723C55.4474 15.9986 54.9659 16.1364 54.4205 16.1364C54 16.1364 53.6634 16.0668 53.4105 15.9276C53.1577 15.7855 52.9631 15.625 52.8267 15.446C52.6903 15.2642 52.5852 15.1136 52.5114 14.9943H52.4261V18.4545H51.4205ZM52.4091 12.7273C52.4091 13.2216 52.4815 13.6577 52.6264 14.0355C52.7713 14.4105 52.983 14.7045 53.2614 14.9176C53.5398 15.1278 53.8807 15.233 54.2841 15.233C54.7045 15.233 55.0554 15.1222 55.3366 14.9006C55.6207 14.6761 55.8338 14.375 55.9759 13.9972C56.1207 13.6165 56.1932 13.1932 56.1932 12.7273C56.1932 12.267 56.1222 11.8523 55.9801 11.483C55.8409 11.1108 55.6293 10.8168 55.3452 10.6009C55.0639 10.3821 54.7102 10.2727 54.2841 10.2727C53.875 10.2727 53.5313 10.3764 53.2528 10.5838C52.9744 10.7884 52.7642 11.0753 52.6222 11.4446C52.4801 11.8111 52.4091 12.2386 52.4091 12.7273ZM61.5795 9.45455V10.3068H58.1875V9.45455H61.5795ZM59.1761 7.88636H60.1818V14.125C60.1818 14.4091 60.223 14.6222 60.3054 14.7642C60.3906 14.9034 60.4986 14.9972 60.6293 15.0455C60.7628 15.0909 60.9034 15.1136 61.0511 15.1136C61.1619 15.1136 61.2528 15.108 61.3239 15.0966C61.3949 15.0824 61.4517 15.071 61.4943 15.0625L61.6989 15.9659C61.6307 15.9915 61.5355 16.017 61.4134 16.0426C61.2912 16.071 61.1364 16.0852 60.9489 16.0852C60.6648 16.0852 60.3864 16.0241 60.1136 15.902C59.8438 15.7798 59.6193 15.5938 59.4403 15.3438C59.2642 15.0938 59.1761 14.7784 59.1761 14.3977V7.88636ZM65.7663 16.1364C65.1357 16.1364 64.5916 15.9972 64.1342 15.7188C63.6797 15.4375 63.3288 15.0455 63.0817 14.5426C62.8374 14.0369 62.7152 13.4489 62.7152 12.7784C62.7152 12.108 62.8374 11.517 63.0817 11.0057C63.3288 10.4915 63.6726 10.0909 64.1129 9.80398C64.5561 9.5142 65.0732 9.36932 65.6641 9.36932C66.005 9.36932 66.3416 9.42614 66.674 9.53977C67.0064 9.65341 67.3089 9.83807 67.5817 10.0938C67.8544 10.3466 68.0717 10.6818 68.2337 11.0994C68.3956 11.517 68.4766 12.0312 68.4766 12.642V13.0682H63.4311V12.1989H67.4538C67.4538 11.8295 67.38 11.5 67.2322 11.2102C67.0874 10.9205 66.88 10.6918 66.6101 10.5241C66.343 10.3565 66.0277 10.2727 65.6641 10.2727C65.2635 10.2727 64.9169 10.3722 64.6243 10.571C64.3345 10.767 64.1115 11.0227 63.9553 11.3381C63.799 11.6534 63.7209 11.9915 63.7209 12.3523V12.9318C63.7209 13.4261 63.8061 13.8452 63.9766 14.1889C64.1499 14.5298 64.3899 14.7898 64.6967 14.9688C65.0036 15.1449 65.3601 15.233 65.7663 15.233C66.0305 15.233 66.2692 15.196 66.4822 15.1222C66.6982 15.0455 66.8842 14.9318 67.0405 14.7812C67.1967 14.6278 67.3175 14.4375 67.4027 14.2102L68.3743 14.483C68.272 14.8125 68.1001 15.1023 67.8587 15.3523C67.6172 15.5994 67.3189 15.7926 66.9638 15.9318C66.6087 16.0682 66.2095 16.1364 65.7663 16.1364ZM72.478 16.1364C71.9325 16.1364 71.451 15.9986 71.0334 15.723C70.6158 15.4446 70.2891 15.0526 70.0533 14.5469C69.8175 14.0384 69.6996 13.4375 69.6996 12.7443C69.6996 12.0568 69.8175 11.4602 70.0533 10.9545C70.2891 10.4489 70.6172 10.0582 71.0376 9.78267C71.4581 9.5071 71.9439 9.36932 72.495 9.36932C72.9212 9.36932 73.2578 9.44034 73.505 9.58239C73.755 9.72159 73.9453 9.88068 74.076 10.0597C74.2095 10.2358 74.3132 10.3807 74.3871 10.4943H74.4723V7.27273H75.478V16H74.5064V14.9943H74.3871C74.3132 15.1136 74.2081 15.2642 74.0717 15.446C73.9354 15.625 73.7408 15.7855 73.4879 15.9276C73.2351 16.0668 72.8984 16.1364 72.478 16.1364ZM72.6143 15.233C73.0178 15.233 73.3587 15.1278 73.6371 14.9176C73.9155 14.7045 74.1271 14.4105 74.272 14.0355C74.4169 13.6577 74.4893 13.2216 74.4893 12.7273C74.4893 12.2386 74.4183 11.8111 74.2763 11.4446C74.1342 11.0753 73.924 10.7884 73.6456 10.5838C73.3672 10.3764 73.0234 10.2727 72.6143 10.2727C72.1882 10.2727 71.8331 10.3821 71.549 10.6009C71.2678 10.8168 71.0561 11.1108 70.9141 11.483C70.7749 11.8523 70.7053 12.267 70.7053 12.7273C70.7053 13.1932 70.7763 13.6165 70.9183 13.9972C71.0632 14.375 71.2763 14.6761 71.5575 14.9006C71.8416 15.1222 72.1939 15.233 72.6143 15.233Z" fill="#409261"/>
</svg>
