<svg width="77" height="23" viewBox="0 0 77 23" fill="none" xmlns="http://www.w3.org/2000/svg">
<rect width="77" height="23" rx="11.5" fill="#FFECC0"/>
<circle cx="11.5" cy="11.5" r="3.5" fill="#FBA800"/>
<path d="M23.0568 16V7.27273H26.0057C26.6903 7.27273 27.25 7.39631 27.6847 7.64347C28.1222 7.88778 28.446 8.21875 28.6562 8.63636C28.8665 9.05398 28.9716 9.51989 28.9716 10.0341C28.9716 10.5483 28.8665 11.0156 28.6562 11.4361C28.4489 11.8565 28.1278 12.1918 27.6932 12.4418C27.2585 12.6889 26.7017 12.8125 26.0227 12.8125H23.9091V11.875H25.9886C26.4574 11.875 26.8338 11.794 27.1179 11.6321C27.402 11.4702 27.608 11.2514 27.7358 10.9759C27.8665 10.6974 27.9318 10.3835 27.9318 10.0341C27.9318 9.68466 27.8665 9.37216 27.7358 9.09659C27.608 8.82102 27.4006 8.60511 27.1136 8.44886C26.8267 8.28977 26.446 8.21023 25.9716 8.21023H24.1136V16H23.0568ZM33.2116 16.1364C32.581 16.1364 32.0369 15.9972 31.5795 15.7188C31.125 15.4375 30.7741 15.0455 30.527 14.5426C30.2827 14.0369 30.1605 13.4489 30.1605 12.7784C30.1605 12.108 30.2827 11.517 30.527 11.0057C30.7741 10.4915 31.1179 10.0909 31.5582 9.80398C32.0014 9.5142 32.5185 9.36932 33.1094 9.36932C33.4503 9.36932 33.7869 9.42614 34.1193 9.53977C34.4517 9.65341 34.7543 9.83807 35.027 10.0938C35.2997 10.3466 35.517 10.6818 35.679 11.0994C35.8409 11.517 35.9219 12.0312 35.9219 12.642V13.0682H30.8764V12.1989H34.8991C34.8991 11.8295 34.8253 11.5 34.6776 11.2102C34.5327 10.9205 34.3253 10.6918 34.0554 10.5241C33.7884 10.3565 33.473 10.2727 33.1094 10.2727C32.7088 10.2727 32.3622 10.3722 32.0696 10.571C31.7798 10.767 31.5568 11.0227 31.4006 11.3381C31.2443 11.6534 31.1662 11.9915 31.1662 12.3523V12.9318C31.1662 13.4261 31.2514 13.8452 31.4219 14.1889C31.5952 14.5298 31.8352 14.7898 32.142 14.9688C32.4489 15.1449 32.8054 15.233 33.2116 15.233C33.4759 15.233 33.7145 15.196 33.9276 15.1222C34.1435 15.0455 34.3295 14.9318 34.4858 14.7812C34.642 14.6278 34.7628 14.4375 34.848 14.2102L35.8196 14.483C35.7173 14.8125 35.5455 15.1023 35.304 15.3523C35.0625 15.5994 34.7642 15.7926 34.4091 15.9318C34.054 16.0682 33.6548 16.1364 33.2116 16.1364ZM38.4574 12.0625V16H37.4517V9.45455H38.4233V10.4773H38.5085C38.6619 10.1449 38.8949 9.87784 39.2074 9.67614C39.5199 9.47159 39.9233 9.36932 40.4176 9.36932C40.8608 9.36932 41.2486 9.46023 41.581 9.64205C41.9134 9.82102 42.1719 10.0938 42.3565 10.4602C42.5412 10.8239 42.6335 11.2841 42.6335 11.8409V16H41.6278V11.9091C41.6278 11.3949 41.4943 10.9943 41.2273 10.7074C40.9602 10.4176 40.5938 10.2727 40.1278 10.2727C39.8068 10.2727 39.5199 10.3423 39.267 10.4815C39.017 10.6207 38.8196 10.8239 38.6747 11.0909C38.5298 11.358 38.4574 11.6818 38.4574 12.0625ZM46.9428 16.1364C46.3974 16.1364 45.9158 15.9986 45.4982 15.723C45.0806 15.4446 44.7539 15.0526 44.5181 14.5469C44.2823 14.0384 44.1644 13.4375 44.1644 12.7443C44.1644 12.0568 44.2823 11.4602 44.5181 10.9545C44.7539 10.4489 45.082 10.0582 45.5025 9.78267C45.9229 9.5071 46.4087 9.36932 46.9599 9.36932C47.386 9.36932 47.7227 9.44034 47.9698 9.58239C48.2198 9.72159 48.4102 9.88068 48.5408 10.0597C48.6744 10.2358 48.7781 10.3807 48.8519 10.4943H48.9371V7.27273H49.9428V16H48.9712V14.9943H48.8519C48.7781 15.1136 48.6729 15.2642 48.5366 15.446C48.4002 15.625 48.2056 15.7855 47.9528 15.9276C47.6999 16.0668 47.3633 16.1364 46.9428 16.1364ZM47.0792 15.233C47.4826 15.233 47.8235 15.1278 48.1019 14.9176C48.3803 14.7045 48.592 14.4105 48.7369 14.0355C48.8817 13.6577 48.9542 13.2216 48.9542 12.7273C48.9542 12.2386 48.8832 11.8111 48.7411 11.4446C48.5991 11.0753 48.3888 10.7884 48.1104 10.5838C47.832 10.3764 47.4883 10.2727 47.0792 10.2727C46.6531 10.2727 46.2979 10.3821 46.0138 10.6009C45.7326 10.8168 45.521 11.1108 45.3789 11.483C45.2397 11.8523 45.1701 12.267 45.1701 12.7273C45.1701 13.1932 45.2411 13.6165 45.3832 13.9972C45.5281 14.375 45.7411 14.6761 46.0224 14.9006C46.3065 15.1222 46.6587 15.233 47.0792 15.233ZM51.9244 16V9.45455H52.93V16H51.9244ZM52.4357 8.36364C52.2397 8.36364 52.0707 8.29688 51.9286 8.16335C51.7894 8.02983 51.7198 7.86932 51.7198 7.68182C51.7198 7.49432 51.7894 7.33381 51.9286 7.20028C52.0707 7.06676 52.2397 7 52.4357 7C52.6317 7 52.7994 7.06676 52.9386 7.20028C53.0806 7.33381 53.1516 7.49432 53.1516 7.68182C53.1516 7.86932 53.0806 8.02983 52.9386 8.16335C52.7994 8.29688 52.6317 8.36364 52.4357 8.36364ZM55.7777 12.0625V16H54.772V9.45455H55.7436V10.4773H55.8288C55.9822 10.1449 56.2152 9.87784 56.5277 9.67614C56.8402 9.47159 57.2436 9.36932 57.7379 9.36932C58.1811 9.36932 58.5689 9.46023 58.9013 9.64205C59.2337 9.82102 59.4922 10.0938 59.6768 10.4602C59.8615 10.8239 59.9538 11.2841 59.9538 11.8409V16H58.9482V11.9091C58.9482 11.3949 58.8146 10.9943 58.5476 10.7074C58.2805 10.4176 57.9141 10.2727 57.4482 10.2727C57.1271 10.2727 56.8402 10.3423 56.5874 10.4815C56.3374 10.6207 56.1399 10.8239 55.995 11.0909C55.8501 11.358 55.7777 11.6818 55.7777 12.0625ZM64.4336 18.5909C63.9478 18.5909 63.5302 18.5284 63.1808 18.4034C62.8313 18.2812 62.5401 18.1193 62.3072 17.9176C62.0771 17.7188 61.8938 17.5057 61.7575 17.2784L62.5586 16.7159C62.6495 16.8352 62.7646 16.9716 62.9038 17.125C63.043 17.2812 63.2333 17.4162 63.4748 17.5298C63.7191 17.6463 64.0387 17.7045 64.4336 17.7045C64.962 17.7045 65.3981 17.5767 65.7418 17.321C66.0856 17.0653 66.2575 16.6648 66.2575 16.1193V14.7898H66.1722C66.0984 14.9091 65.9933 15.0568 65.8569 15.233C65.7234 15.4062 65.5302 15.5611 65.2773 15.6974C65.0273 15.831 64.6893 15.8977 64.2631 15.8977C63.7347 15.8977 63.2603 15.7727 62.8398 15.5227C62.4222 15.2727 62.0913 14.9091 61.8469 14.4318C61.6055 13.9545 61.4847 13.375 61.4847 12.6932C61.4847 12.0227 61.6026 11.4389 61.8384 10.9418C62.0742 10.4418 62.4023 10.0554 62.8228 9.78267C63.2433 9.5071 63.729 9.36932 64.2802 9.36932C64.7063 9.36932 65.0444 9.44034 65.2944 9.58239C65.5472 9.72159 65.7404 9.88068 65.8739 10.0597C66.0103 10.2358 66.1154 10.3807 66.1893 10.4943H66.2915V9.45455H67.2631V16.1875C67.2631 16.75 67.1353 17.2074 66.8796 17.5597C66.6268 17.9148 66.2859 18.1747 65.8569 18.3395C65.4308 18.5071 64.9563 18.5909 64.4336 18.5909ZM64.3995 14.9943C64.8029 14.9943 65.1438 14.902 65.4222 14.7173C65.7006 14.5327 65.9123 14.267 66.0572 13.9205C66.2021 13.5739 66.2745 13.1591 66.2745 12.6761C66.2745 12.2045 66.2035 11.7884 66.0614 11.4276C65.9194 11.0668 65.7092 10.7841 65.4308 10.5795C65.1523 10.375 64.8086 10.2727 64.3995 10.2727C63.9734 10.2727 63.6183 10.3807 63.3342 10.5966C63.0529 10.8125 62.8413 11.1023 62.6992 11.4659C62.56 11.8295 62.4904 12.233 62.4904 12.6761C62.4904 13.1307 62.5614 13.5327 62.7035 13.8821C62.8484 14.2287 63.0614 14.5014 63.3427 14.7003C63.6268 14.8963 63.979 14.9943 64.3995 14.9943Z" fill="#FBA800"/>
</svg>
