<svg width="80" height="23" viewBox="0 0 80 23" fill="none" xmlns="http://www.w3.org/2000/svg">
<rect width="80" height="23" rx="11.5" fill="#F4D0D1"/>
<circle cx="11.5" cy="11.5" r="3.5" fill="#C6131B"/>
<path d="M23.0568 16V7.27273H26.0057C26.6875 7.27273 27.2472 7.3892 27.6847 7.62216C28.1222 7.85227 28.446 8.16903 28.6562 8.57244C28.8665 8.97585 28.9716 9.43466 28.9716 9.94886C28.9716 10.4631 28.8665 10.919 28.6562 11.3168C28.446 11.7145 28.1236 12.027 27.6889 12.2543C27.2543 12.4787 26.6989 12.5909 26.0227 12.5909H23.6364V11.6364H25.9886C26.4545 11.6364 26.8295 11.5682 27.1136 11.4318C27.4006 11.2955 27.608 11.1023 27.7358 10.8523C27.8665 10.5994 27.9318 10.2983 27.9318 9.94886C27.9318 9.59943 27.8665 9.29403 27.7358 9.03267C27.6051 8.77131 27.3963 8.5696 27.1094 8.42756C26.8224 8.28267 26.4432 8.21023 25.9716 8.21023H24.1136V16H23.0568ZM27.1648 12.0795L29.3125 16H28.0852L25.9716 12.0795H27.1648ZM33.2702 16.1364C32.6396 16.1364 32.0955 15.9972 31.6381 15.7188C31.1836 15.4375 30.8327 15.0455 30.5856 14.5426C30.3413 14.0369 30.2191 13.4489 30.2191 12.7784C30.2191 12.108 30.3413 11.517 30.5856 11.0057C30.8327 10.4915 31.1765 10.0909 31.6168 9.80398C32.06 9.5142 32.5771 9.36932 33.168 9.36932C33.5089 9.36932 33.8455 9.42614 34.1779 9.53977C34.5103 9.65341 34.8129 9.83807 35.0856 10.0938C35.3583 10.3466 35.5756 10.6818 35.7376 11.0994C35.8995 11.517 35.9805 12.0312 35.9805 12.642V13.0682H30.935V12.1989H34.9577C34.9577 11.8295 34.8839 11.5 34.7362 11.2102C34.5913 10.9205 34.3839 10.6918 34.114 10.5241C33.8469 10.3565 33.5316 10.2727 33.168 10.2727C32.7674 10.2727 32.4208 10.3722 32.1282 10.571C31.8384 10.767 31.6154 11.0227 31.4592 11.3381C31.3029 11.6534 31.2248 11.9915 31.2248 12.3523V12.9318C31.2248 13.4261 31.31 13.8452 31.4805 14.1889C31.6538 14.5298 31.8938 14.7898 32.2006 14.9688C32.5075 15.1449 32.864 15.233 33.2702 15.233C33.5344 15.233 33.7731 15.196 33.9862 15.1222C34.2021 15.0455 34.3881 14.9318 34.5444 14.7812C34.7006 14.6278 34.8214 14.4375 34.9066 14.2102L35.8782 14.483C35.7759 14.8125 35.604 15.1023 35.3626 15.3523C35.1211 15.5994 34.8228 15.7926 34.4677 15.9318C34.1126 16.0682 33.7134 16.1364 33.2702 16.1364ZM37.5103 9.45455H38.516V16.4773C38.516 16.8807 38.4464 17.2301 38.3072 17.5256C38.1708 17.821 37.9634 18.0497 37.685 18.2116C37.4094 18.3736 37.0614 18.4545 36.641 18.4545C36.6069 18.4545 36.5728 18.4545 36.5387 18.4545C36.5046 18.4545 36.4705 18.4545 36.4364 18.4545V17.517C36.4705 17.517 36.5018 17.517 36.5302 17.517C36.5586 17.517 36.5898 17.517 36.6239 17.517C36.9308 17.517 37.1552 17.4261 37.2972 17.2443C37.4393 17.0653 37.5103 16.8097 37.5103 16.4773V9.45455ZM38.0046 8.36364C37.8086 8.36364 37.6396 8.29688 37.4975 8.16335C37.3583 8.02983 37.2887 7.86932 37.2887 7.68182C37.2887 7.49432 37.3583 7.33381 37.4975 7.20028C37.6396 7.06676 37.8086 7 38.0046 7C38.2006 7 38.3683 7.06676 38.5075 7.20028C38.6495 7.33381 38.7205 7.49432 38.7205 7.68182C38.7205 7.86932 38.6495 8.02983 38.5075 8.16335C38.3683 8.29688 38.2006 8.36364 38.0046 8.36364ZM43.1023 16.1364C42.4716 16.1364 41.9276 15.9972 41.4702 15.7188C41.0156 15.4375 40.6648 15.0455 40.4176 14.5426C40.1733 14.0369 40.0511 13.4489 40.0511 12.7784C40.0511 12.108 40.1733 11.517 40.4176 11.0057C40.6648 10.4915 41.0085 10.0909 41.4489 9.80398C41.892 9.5142 42.4091 9.36932 43 9.36932C43.3409 9.36932 43.6776 9.42614 44.0099 9.53977C44.3423 9.65341 44.6449 9.83807 44.9176 10.0938C45.1903 10.3466 45.4077 10.6818 45.5696 11.0994C45.7315 11.517 45.8125 12.0312 45.8125 12.642V13.0682H40.767V12.1989H44.7898C44.7898 11.8295 44.7159 11.5 44.5682 11.2102C44.4233 10.9205 44.2159 10.6918 43.946 10.5241C43.679 10.3565 43.3636 10.2727 43 10.2727C42.5994 10.2727 42.2528 10.3722 41.9602 10.571C41.6705 10.767 41.4474 11.0227 41.2912 11.3381C41.1349 11.6534 41.0568 11.9915 41.0568 12.3523V12.9318C41.0568 13.4261 41.142 13.8452 41.3125 14.1889C41.4858 14.5298 41.7259 14.7898 42.0327 14.9688C42.3395 15.1449 42.696 15.233 43.1023 15.233C43.3665 15.233 43.6051 15.196 43.8182 15.1222C44.0341 15.0455 44.2202 14.9318 44.3764 14.7812C44.5327 14.6278 44.6534 14.4375 44.7386 14.2102L45.7102 14.483C45.608 14.8125 45.4361 15.1023 45.1946 15.3523C44.9531 15.5994 44.6548 15.7926 44.2997 15.9318C43.9446 16.0682 43.5455 16.1364 43.1023 16.1364ZM50.0014 16.1364C49.3878 16.1364 48.8594 15.9915 48.4162 15.7017C47.973 15.4119 47.6321 15.0128 47.3935 14.5043C47.1548 13.9957 47.0355 13.4148 47.0355 12.7614C47.0355 12.0966 47.1577 11.5099 47.402 11.0014C47.6491 10.4901 47.9929 10.0909 48.4332 9.80398C48.8764 9.5142 49.3935 9.36932 49.9844 9.36932C50.4446 9.36932 50.8594 9.45455 51.2287 9.625C51.598 9.79545 51.9006 10.0341 52.1364 10.3409C52.3722 10.6477 52.5185 11.0057 52.5753 11.4148H51.5696C51.4929 11.1165 51.3224 10.8523 51.0582 10.6222C50.7969 10.3892 50.4446 10.2727 50.0014 10.2727C49.6094 10.2727 49.2656 10.375 48.9702 10.5795C48.6776 10.7812 48.4489 11.0668 48.2841 11.4361C48.1222 11.8026 48.0412 12.233 48.0412 12.7273C48.0412 13.233 48.1207 13.6733 48.2798 14.0483C48.4418 14.4233 48.669 14.7145 48.9616 14.9219C49.2571 15.1293 49.6037 15.233 50.0014 15.233C50.2628 15.233 50.5 15.1875 50.7131 15.0966C50.9261 15.0057 51.1065 14.875 51.2543 14.7045C51.402 14.5341 51.5071 14.3295 51.5696 14.0909H52.5753C52.5185 14.4773 52.3778 14.8253 52.1534 15.1349C51.9318 15.4418 51.6378 15.6861 51.2713 15.8679C50.9077 16.0469 50.4844 16.1364 50.0014 16.1364ZM56.892 9.45455V10.3068H53.5V9.45455H56.892ZM54.4886 7.88636H55.4943V14.125C55.4943 14.4091 55.5355 14.6222 55.6179 14.7642C55.7031 14.9034 55.8111 14.9972 55.9418 15.0455C56.0753 15.0909 56.2159 15.1136 56.3636 15.1136C56.4744 15.1136 56.5653 15.108 56.6364 15.0966C56.7074 15.0824 56.7642 15.071 56.8068 15.0625L57.0114 15.9659C56.9432 15.9915 56.848 16.017 56.7259 16.0426C56.6037 16.071 56.4489 16.0852 56.2614 16.0852C55.9773 16.0852 55.6989 16.0241 55.4261 15.902C55.1563 15.7798 54.9318 15.5938 54.7528 15.3438C54.5767 15.0938 54.4886 14.7784 54.4886 14.3977V7.88636ZM61.0788 16.1364C60.4482 16.1364 59.9041 15.9972 59.4467 15.7188C58.9922 15.4375 58.6413 15.0455 58.3942 14.5426C58.1499 14.0369 58.0277 13.4489 58.0277 12.7784C58.0277 12.108 58.1499 11.517 58.3942 11.0057C58.6413 10.4915 58.9851 10.0909 59.4254 9.80398C59.8686 9.5142 60.3857 9.36932 60.9766 9.36932C61.3175 9.36932 61.6541 9.42614 61.9865 9.53977C62.3189 9.65341 62.6214 9.83807 62.8942 10.0938C63.1669 10.3466 63.3842 10.6818 63.5462 11.0994C63.7081 11.517 63.7891 12.0312 63.7891 12.642V13.0682H58.7436V12.1989H62.7663C62.7663 11.8295 62.6925 11.5 62.5447 11.2102C62.3999 10.9205 62.1925 10.6918 61.9226 10.5241C61.6555 10.3565 61.3402 10.2727 60.9766 10.2727C60.576 10.2727 60.2294 10.3722 59.9368 10.571C59.647 10.767 59.424 11.0227 59.2678 11.3381C59.1115 11.6534 59.0334 11.9915 59.0334 12.3523V12.9318C59.0334 13.4261 59.1186 13.8452 59.2891 14.1889C59.4624 14.5298 59.7024 14.7898 60.0092 14.9688C60.3161 15.1449 60.6726 15.233 61.0788 15.233C61.343 15.233 61.5817 15.196 61.7947 15.1222C62.0107 15.0455 62.1967 14.9318 62.353 14.7812C62.5092 14.6278 62.63 14.4375 62.7152 14.2102L63.6868 14.483C63.5845 14.8125 63.4126 15.1023 63.1712 15.3523C62.9297 15.5994 62.6314 15.7926 62.2763 15.9318C61.9212 16.0682 61.522 16.1364 61.0788 16.1364ZM67.7905 16.1364C67.245 16.1364 66.7635 15.9986 66.3459 15.723C65.9283 15.4446 65.6016 15.0526 65.3658 14.5469C65.13 14.0384 65.0121 13.4375 65.0121 12.7443C65.0121 12.0568 65.13 11.4602 65.3658 10.9545C65.6016 10.4489 65.9297 10.0582 66.3501 9.78267C66.7706 9.5071 67.2564 9.36932 67.8075 9.36932C68.2337 9.36932 68.5703 9.44034 68.8175 9.58239C69.0675 9.72159 69.2578 9.88068 69.3885 10.0597C69.522 10.2358 69.6257 10.3807 69.6996 10.4943H69.7848V7.27273H70.7905V16H69.8189V14.9943H69.6996C69.6257 15.1136 69.5206 15.2642 69.3842 15.446C69.2479 15.625 69.0533 15.7855 68.8004 15.9276C68.5476 16.0668 68.2109 16.1364 67.7905 16.1364ZM67.9268 15.233C68.3303 15.233 68.6712 15.1278 68.9496 14.9176C69.228 14.7045 69.4396 14.4105 69.5845 14.0355C69.7294 13.6577 69.8018 13.2216 69.8018 12.7273C69.8018 12.2386 69.7308 11.8111 69.5888 11.4446C69.4467 11.0753 69.2365 10.7884 68.9581 10.5838C68.6797 10.3764 68.3359 10.2727 67.9268 10.2727C67.5007 10.2727 67.1456 10.3821 66.8615 10.6009C66.5803 10.8168 66.3686 11.1108 66.2266 11.483C66.0874 11.8523 66.0178 12.267 66.0178 12.7273C66.0178 13.1932 66.0888 13.6165 66.2308 13.9972C66.3757 14.375 66.5888 14.6761 66.87 14.9006C67.1541 15.1222 67.5064 15.233 67.9268 15.233Z" fill="#C6131B"/>
</svg>
