<svg xmlns="http://www.w3.org/2000/svg" width="800" height="800" viewBox="0 0 24 24" fill="#000" xmlns:v="https://vecta.io/nano"><path d="M12 8.25a3.75 3.75 0 1 0 0 7.5 3.75 3.75 0 1 0 0-7.5z"/><path fill-rule="evenodd" d="M12 1.25a.75.75 0 0 1 .75.75v1.282c4.234.359 7.609 3.734 7.968 7.968H22a.75.75 0 1 1 0 1.5h-1.282c-.359 4.234-3.734 7.609-7.968 7.968V22a.75.75 0 1 1-1.5 0v-1.282c-4.234-.359-7.609-3.734-7.968-7.968H2a.75.75 0 1 1 0-1.5h1.282c.359-4.234 3.734-7.609 7.968-7.968V2a.75.75 0 0 1 .75-.75zM4.75 12a7.25 7.25 0 1 0 14.5 0 7.25 7.25 0 1 0-14.5 0z"/></svg>